<?xml version="1.0" encoding="utf-8" standalone="no"?>
<svg width="456" height="456" viewBox="0 0 456 456" fill="none" xmlns="http://www.w3.org/2000/svg">
<rect width="456" height="456" fill="url(#paint0_linear_208_20)"/>
<rect x="121" y="298" width="215" height="40" fill="#EC3333"/>
<rect x="100" y="318" width="260" height="40" fill="#EF4444"/>
<path d="M354.414 153C354.414 167.728 366.354 179.667 381.081 179.667C395.809 179.667 407.748 167.728 407.748 153C407.748 138.272 395.809 126.333 381.081 126.333C366.354 126.333 354.414 138.272 354.414 153ZM277.004 321.997C276.673 322.246 276.464 322.319 276.85 322.131C277.1 322.009 277.466 321.841 277.983 321.609C278.949 321.176 280.481 320.505 282.211 319.723C285.765 318.115 290.646 315.823 296.363 312.755C307.783 306.626 322.585 297.381 336.907 284.247C365.653 257.885 392.412 215.852 386.056 152.501L376.106 153.499C382.08 213.044 357.116 252.146 330.148 276.877C316.612 289.29 302.559 298.081 291.634 303.943C286.179 306.871 281.515 309.062 278.09 310.611C276.33 311.407 275.015 311.981 273.891 312.485C273.364 312.721 272.875 312.944 272.473 313.14C272.21 313.268 271.554 313.584 270.996 314.003L277.004 321.997Z" fill="#EF4444"/>
<ellipse cx="226.5" cy="193" rx="126.5" ry="130" fill="#EF4444"/>
<circle cx="226" cy="196" r="40" fill="#EDE3E3"/>
<path d="M231.432 326.48C215.026 326.48 200.401 323.663 187.558 318.028C174.797 312.394 164.647 304.564 157.107 294.538C149.65 284.429 145.589 272.704 144.926 259.364H176.248C176.91 267.567 179.728 274.651 184.699 280.617C189.671 286.5 196.175 291.058 204.213 294.289C212.25 297.521 221.158 299.136 230.935 299.136C241.873 299.136 251.567 297.231 260.019 293.419C268.471 289.607 275.099 284.304 279.905 277.51C284.711 270.715 287.114 262.844 287.114 253.895C287.114 244.532 284.794 236.287 280.154 229.161C275.514 221.952 268.719 216.318 259.77 212.258C250.821 208.198 239.884 206.168 226.958 206.168H206.574V178.824H226.958C237.067 178.824 245.933 177.001 253.556 173.355C261.262 169.709 267.269 164.572 271.578 157.943C275.969 151.314 278.165 143.526 278.165 134.577C278.165 125.959 276.259 118.46 272.448 112.08C268.636 105.7 263.25 100.728 256.29 97.1655C249.413 93.6025 241.292 91.821 231.929 91.821C223.146 91.821 214.86 93.4368 207.071 96.6683C199.365 99.817 193.068 104.416 188.179 110.464C183.291 116.43 180.639 123.639 180.225 132.091H150.395C150.892 118.75 154.911 107.067 162.451 97.0412C169.992 86.9323 179.852 79.0606 192.032 73.4261C204.296 67.7917 217.76 64.9744 232.426 64.9744C248.17 64.9744 261.676 68.1645 272.945 74.5447C284.214 80.8421 292.873 89.1695 298.922 99.527C304.97 109.884 307.995 121.071 307.995 133.085C307.995 147.42 304.225 159.642 296.684 169.751C289.227 179.86 279.077 186.861 266.233 190.756V192.744C282.308 195.396 294.861 202.232 303.893 213.252C312.925 224.19 317.441 237.737 317.441 253.895C317.441 267.732 313.671 280.161 306.13 291.182C298.673 302.119 288.481 310.737 275.555 317.034C262.629 323.331 247.921 326.48 231.432 326.48Z" fill="#EC2125"/>
<defs>
<linearGradient id="paint0_linear_208_20" x1="228" y1="0" x2="228" y2="456" gradientUnits="userSpaceOnUse">
<stop stop-color="#DB4A47"/>
<stop offset="1" stop-color="#FE817F"/>
</linearGradient>
</defs>
</svg>
